<svg xmlns="http://www.w3.org/2000/svg" viewBox="0 0 64 64">
  <defs>
    <linearGradient id="g" x1="12%" x2="88%" y1="0%" y2="100%">
      <stop offset="0%" stop-color="#173b2d"/>
      <stop offset="100%" stop-color="#5f8f73"/>
    </linearGradient>
  </defs>
  <rect width="64" height="64" rx="20" fill="url(#g)"/>
  <path d="M19 21c0-4.4 3.6-8 8-8h12c4.4 0 8 3.6 8 8v2H34.5c-3.6 0-6.5 2.9-6.5 6.5S30.9 36 34.5 36H45c0 8.3-6.7 15-15 15-6.2 0-11.9-3.8-14.2-9.6l7.2-2.8c1.1 2.8 3.8 4.7 7 4.7 3.9 0 7-3.1 7-7H27c-4.4 0-8-3.6-8-8v-7.3Z" fill="#eff7ef"/>
  <path d="M46 19.5c0 4.1-3.4 7.5-7.5 7.5H31l4.1-6.3a5 5 0 0 1 4.2-2.2H46v1Z" fill="#b8d6c2"/>
</svg>
